<svg id="Layer_1" data-name="Layer 1" xmlns="http://www.w3.org/2000/svg" viewBox="0 0 487.13 487.05"><defs><style>.cls-1{fill:#18a6df;}.cls-2{fill:#fbfdfe;}.cls-3{fill:#19a7df;}.cls-4{fill:#fdfdfe;}.cls-5{fill:#eed751;}.cls-6{fill:#ecd652;}.cls-7{fill:#23aae0;}</style></defs><title>dodo-logo</title><path class="cls-1" d="M6.44,254.61C5.78,387.46,114.57,497.85,246.85,498.55,383,499.27,492.92,391.63,493.57,257c.65-135.3-107.36-244.73-242.32-245.5C116.57,10.73,7.12,119.42,6.44,254.61Z" transform="translate(-6.44 -11.5)"/><path class="cls-2" d="M6.44,254.61C7.12,119.42,116.57,10.73,251.25,11.51c135,.77,243,110.2,242.32,245.5C492.92,391.63,383,499.27,246.85,498.55,114.57,497.85,5.78,387.46,6.44,254.61Zm29.9.21c-.17,117.33,95.36,213.57,212.22,213.8,118.91.22,214.88-94.71,215.15-212.83A213.66,213.66,0,0,0,250.54,41.44C132.57,41.11,36.52,136.79,36.34,254.82Z" transform="translate(-6.44 -11.5)"/><path class="cls-3" d="M36.34,254.82c.18-118,96.23-213.71,214.2-213.38A213.66,213.66,0,0,1,463.71,255.79c-.27,118.12-96.24,213.05-215.15,212.83C131.7,468.39,36.17,372.15,36.34,254.82ZM181.47,105l.38,1.6c2.12.22,4.25.42,6.36.68,20.87,2.53,35.87,18.48,37.1,39.42,1.32,22.47-11.52,40.57-32.55,45.2-6,1.31-12.25,1.12-18.32,2a13.62,13.62,0,0,0-7,2.87,69.6,69.6,0,0,0-20.3,33.83c-6.84,25.54-4.59,50.71,5.28,74.92,7.47,18.33,21.74,30.06,40.87,35.34,10.57,2.92,21.29,5.37,32,7.65,22.57,4.8,44.22,11.64,64.86,22.51,25.77,13.58,51.86,11.45,75.55-5.45,23.91-17.05,33.39-41.16,29.72-70.26-.39-3.17.38-4.85,2.89-6.57a43.06,43.06,0,0,1,47.62-.49l5.24,3.43C448,278.48,441.5,268.72,431,261.91c-15.91-10.31-32.53-10.25-49.48-2.18-16.36-24.09-39.51-37.63-66.68-45.05-22.21-6.06-44.91-7.84-67.85-6.59-10.24.56-20.45,1.67-32.59,2.69,4.71-6.77,8.42-12.59,12.62-18s9.51-10.35,13.48-16.06c11.72-16.85,14.24-34.89,3.7-53.09-10.06-17.37-25.9-25-45.84-23C192.64,101.15,187.09,103.46,181.47,105Zm-64,123c-.21-7-1.08-14.06-.49-21,1.16-13.65,3.17-16.27,16.82-18.44,10.11-1.61,20.54-1.11,30.83-1.63,8.47-.42,17.08-.11,25.36-1.61a35.7,35.7,0,0,0,28.8-41c-3.29-19.55-21-33.09-40.62-29.66-7.42,1.3-14.65,5.23-21.3,9.1-8.1,4.73-16.27,7.23-25.66,6.1a147.67,147.67,0,0,0-18.45-1c-17,.11-31.32,10.28-36.09,25.75a38.61,38.61,0,0,0,3.29,31.39c8.86,15.76,20.9,28.79,34.69,40.31A16.16,16.16,0,0,0,117.45,227.92ZM303.67,397.16c0-8.5-1.74-10.85-8.84-13.74-4.46-1.81-8.67-4.22-13.08-6.17-8.95-4-17.92-7.95-27-11.63a6.76,6.76,0,0,0-5.25.73c-6.91,4.3-13.37,9.34-20.47,13.26-8.43,4.66-17.37,8.4-26,12.66a51.93,51.93,0,0,0-5.82,3.81l.57,1.08Z" transform="translate(-6.44 -11.5)"/><path class="cls-4" d="M181.47,105c5.62-1.5,11.17-3.81,16.89-4.37,19.94-2,35.78,5.64,45.84,23,10.54,18.2,8,36.24-3.7,53.09-4,5.71-9.21,10.53-13.48,16.06s-7.91,11.26-12.62,18c12.14-1,22.35-2.13,32.59-2.69,22.94-1.25,45.64.53,67.85,6.59,27.17,7.42,50.32,21,66.68,45.05,17-8.07,33.57-8.13,49.48,2.18,10.5,6.81,17,16.57,20.24,29.75L446,288.23a43.06,43.06,0,0,0-47.62.49c-2.51,1.72-3.28,3.4-2.89,6.57,3.67,29.1-5.81,53.21-29.72,70.26-23.69,16.9-49.78,19-75.55,5.45-20.64-10.87-42.29-17.71-64.86-22.51-10.74-2.28-21.46-4.73-32-7.65-19.13-5.28-33.4-17-40.87-35.34-9.87-24.21-12.12-49.38-5.28-74.92a69.6,69.6,0,0,1,20.3-33.83,13.62,13.62,0,0,1,7-2.87c6.07-.9,12.35-.71,18.32-2,21-4.63,33.87-22.73,32.55-45.2-1.23-20.94-16.23-36.89-37.1-39.42-2.11-.26-4.24-.46-6.36-.68Zm76.78,202.81c-.09,1.63-.36,2.38-.11,2.86,8.79,16.94,32.64,22.66,48.5,11.25,14.11-10.15,19-24.68,17.87-41.55-.24-3.56-1.28-7.07-1.95-10.6-.4,17.3-5,32.43-19.6,42.54C287.51,322.94,272.55,319.58,258.25,307.77Z" transform="translate(-6.44 -11.5)"/><path class="cls-5" d="M117.45,227.92a16.16,16.16,0,0,1-2.82-1.7c-13.79-11.52-25.83-24.55-34.69-40.31a38.61,38.61,0,0,1-3.29-31.39c4.77-15.47,19-25.64,36.09-25.75a147.67,147.67,0,0,1,18.45,1c9.39,1.13,17.56-1.37,25.66-6.1,6.65-3.87,13.88-7.8,21.3-9.1,19.6-3.43,37.33,10.11,40.62,29.66a35.7,35.7,0,0,1-28.8,41c-8.28,1.5-16.89,1.19-25.36,1.61-10.29.52-20.72,0-30.83,1.63-13.65,2.17-15.66,4.79-16.82,18.44C116.37,213.86,117.24,220.9,117.45,227.92Z" transform="translate(-6.44 -11.5)"/><path class="cls-6" d="M303.67,397.16H197.75l-.57-1.08a51.93,51.93,0,0,1,5.82-3.81c8.66-4.26,17.6-8,26-12.66,7.1-3.92,13.56-9,20.47-13.26a6.76,6.76,0,0,1,5.25-.73c9.08,3.68,18.05,7.65,27,11.63,4.41,1.95,8.62,4.36,13.08,6.17C301.93,386.31,303.64,388.66,303.67,397.16Z" transform="translate(-6.44 -11.5)"/><path class="cls-7" d="M258.25,307.77c14.3,11.81,29.26,15.17,44.71,4.5,14.63-10.11,19.2-25.24,19.6-42.54.67,3.53,1.71,7,1.95,10.6,1.16,16.87-3.76,31.4-17.87,41.55-15.86,11.41-39.71,5.69-48.5-11.25C257.89,310.15,258.16,309.4,258.25,307.77Z" transform="translate(-6.44 -11.5)"/></svg>