<svg id="Layer_2" data-name="Layer 2" xmlns="http://www.w3.org/2000/svg" viewBox="0 0 487 538.31"><defs><style>.cls-1{fill:none;}.cls-2{fill:#18a6df;}.cls-3{fill:#fbfdfe;}.cls-4{fill:#fdfdfe;}.cls-5{fill:#fcfdfe;}.cls-6{fill:#e9d554;}.cls-7{fill:#eed751;}.cls-8{fill:#ecd652;}.cls-9{fill:#fff;}</style></defs><title>logo-square</title><path class="cls-1" d="M106.05,164.34c-.41,83.76,68.17,153.35,151.56,153.79,85.82.45,155.13-67.41,155.54-152.27A153.48,153.48,0,0,0,260.39,11.09C175.48,10.6,106.48,79.12,106.05,164.34Z" transform="translate(-16.19 -11.09)"/><path class="cls-2" d="M28.56,312.48v133H67.48V350.23c6.19-1.21,23.25-.34,29.66,1.45,11.68,3.26,18.08,10.47,19.11,22.6,1.47,17.19-5.7,29.11-23.77,32.43a24.17,24.17,0,0,1-2.8.39c-4.79.3-9.57.56-14.4.83v38.6c4.35,0,8.43.07,12.52,0,18.4-.38,34.94-5.67,48.46-18.7,16.12-15.52,21.45-34.93,19.82-56.58-2-26.23-17.86-46.45-43-54.21a98.15,98.15,0,0,0-25-4.41c-19.2-.68-38.43-.32-57.65-.37A16.2,16.2,0,0,0,28.56,312.48Z" transform="translate(-16.19 -11.09)"/><path class="cls-2" d="M340.07,347.28a53.65,53.65,0,0,0-21.62.9c-19.59,5.12-35.2,23.38-37.25,43.57-2.22,21.81,8.91,41.75,28.5,51.06,19.08,9.07,43.23,5.25,58-9.26,10.81-10.59,14.85-23.89,14.9-38.61.1-26.48,0-52.95,0-79.43V312.4H346.9v4.16c0,25,.06,50-.07,75a43.49,43.49,0,0,1-1.51,11.48c-1.75,6.17-6.28,9.23-12.67,9.42a15.28,15.28,0,0,1-14.35-9,14.73,14.73,0,0,1,3.46-16.24c4.45-4.31,10.24-5.16,16.3-2.41a17.56,17.56,0,0,0,2,.66Z" transform="translate(-16.19 -11.09)"/><path class="cls-1" d="M218.78,447.71c28.47,0,51-22.41,51-50.67a50.2,50.2,0,0,0-50.34-50.57c-29.58,0-51.95,21.87-51.91,50.66A50.72,50.72,0,0,0,218.78,447.71Z" transform="translate(-16.19 -11.09)"/><path class="cls-1" d="M448.45,447.71a50.62,50.62,0,1,0,.75-101.24c-29.39,0-51.95,21.84-52,50.32A50.86,50.86,0,0,0,448.45,447.71Z" transform="translate(-16.19 -11.09)"/><path class="cls-2" d="M260,462.54H25.19a24.17,24.17,0,0,0-4.09.17c-3.11.56-4.94,3-4.91,6.38s1.93,5.69,5.12,6.17a26.24,26.24,0,0,0,3.77.17H494.36a26.56,26.56,0,0,0,3.46-.13c3.37-.43,5.35-2.79,5.37-6.26s-1.94-5.94-5.26-6.4a30.91,30.91,0,0,0-4.09-.11Z" transform="translate(-16.19 -11.09)"/><path class="cls-3" d="M106.05,164.34c.43-85.22,69.43-153.74,154.34-153.25A153.48,153.48,0,0,1,413.15,165.86c-.41,84.86-69.72,152.72-155.54,152.27C174.22,317.69,105.64,248.1,106.05,164.34Zm18.85.14c-.11,74,60.12,134.64,133.79,134.78,75,.14,135.46-59.7,135.63-134.17A134.68,134.68,0,0,0,259.94,30C185.57,29.75,125,90.07,124.9,164.48Z" transform="translate(-16.19 -11.09)"/><path class="cls-4" d="M28.56,312.48a16.2,16.2,0,0,1,1.86-.23c19.22.05,38.45-.31,57.65.37a98.15,98.15,0,0,1,25,4.41c25.14,7.76,41,28,43,54.21,1.63,21.65-3.7,41.06-19.82,56.58-13.52,13-30.06,18.32-48.46,18.7-4.09.08-8.17,0-12.52,0v-38.6c4.83-.27,9.61-.53,14.4-.83a24.17,24.17,0,0,0,2.8-.39c18.07-3.32,25.24-15.24,23.77-32.43-1-12.13-7.43-19.34-19.11-22.6-6.41-1.79-23.47-2.66-29.66-1.45v95.24H28.56Z" transform="translate(-16.19 -11.09)"/><path class="cls-5" d="M340.07,347.28V385.5a17.56,17.56,0,0,1-2-.66c-6.06-2.75-11.85-1.9-16.3,2.41a14.73,14.73,0,0,0-3.46,16.24,15.28,15.28,0,0,0,14.35,9c6.39-.19,10.92-3.25,12.67-9.42a43.49,43.49,0,0,0,1.51-11.48c.13-25,.07-50,.07-75V312.4h35.76v3.11c0,26.48.07,52.95,0,79.43-.05,14.72-4.09,28-14.9,38.61-14.8,14.51-39,18.33-58,9.26-19.59-9.31-30.72-29.25-28.5-51.06,2.05-20.19,17.66-38.45,37.25-43.57A53.65,53.65,0,0,1,340.07,347.28Z" transform="translate(-16.19 -11.09)"/><path class="cls-4" d="M218.78,447.71a50.72,50.72,0,0,1-51.21-50.58c0-28.79,22.33-50.63,51.91-50.66A50.2,50.2,0,0,1,269.82,397C269.81,425.3,247.25,447.69,218.78,447.71Zm-14.85-50.52c0,8.47,6.64,15.31,14.75,15.3s14.91-7,14.83-15.57c-.07-8.73-6.6-15.29-15.1-15.19C210.15,381.83,203.87,388.53,203.93,397.19Z" transform="translate(-16.19 -11.09)"/><path class="cls-4" d="M448.45,447.71a50.86,50.86,0,0,1-51.25-50.92c.05-28.48,22.61-50.31,52-50.32a50.62,50.62,0,1,1-.75,101.24Zm0-66c-8.33,0-14.76,6.54-14.82,15.13s6.52,15.62,14.75,15.63,14.78-6.82,14.86-15.24C463.3,388.51,456.87,381.75,448.44,381.73Z" transform="translate(-16.19 -11.09)"/><path class="cls-6" d="M260,462.54H493.84a30.91,30.91,0,0,1,4.09.11c3.32.46,5.29,2.92,5.26,6.4s-2,5.83-5.37,6.26a26.56,26.56,0,0,1-3.46.13H25.08a26.24,26.24,0,0,1-3.77-.17c-3.19-.48-5.08-2.82-5.12-6.17s1.8-5.82,4.91-6.38a24.17,24.17,0,0,1,4.09-.17Z" transform="translate(-16.19 -11.09)"/><path class="cls-1" d="M124.9,164.48C125,90.07,185.57,29.75,259.94,30A134.68,134.68,0,0,1,394.32,165.09c-.17,74.47-60.66,134.31-135.63,134.17C185,299.12,124.79,238.45,124.9,164.48ZM216.4,70l.23,1c1.34.14,2.68.27,4,.43A26.05,26.05,0,0,1,244,96.29c.83,14.17-7.26,25.58-20.52,28.5-3.76.82-7.72.7-11.55,1.27a8.62,8.62,0,0,0-4.38,1.81,43.77,43.77,0,0,0-12.8,21.33c-4.31,16.1-2.9,32,3.33,47.23,4.71,11.56,13.7,18.95,25.76,22.28,6.67,1.84,13.43,3.38,20.19,4.82,14.23,3,27.88,7.34,40.89,14.19,16.25,8.56,32.7,7.22,47.63-3.44,15.08-10.75,21.05-25.94,18.74-44.29a3.72,3.72,0,0,1,1.82-4.14,27.15,27.15,0,0,1,30-.31l3.3,2.16c-2.06-8.3-6.14-14.46-12.75-18.75-10-6.5-20.52-6.46-31.2-1.38-10.31-15.18-24.91-23.72-42-28.4A133.81,133.81,0,0,0,257.7,135c-6.46.35-12.9,1-20.54,1.7,3-4.27,5.3-7.94,8-11.37s6-6.53,8.5-10.13c7.39-10.62,9-22,2.33-33.47C249.6,70.81,239.61,66,227,67.25,223.44,67.6,219.94,69.06,216.4,70ZM176,147.52c-.13-4.42-.68-8.86-.3-13.23.73-8.6,2-10.25,10.6-11.62,6.37-1,12.95-.7,19.44-1,5.33-.26,10.76-.07,16-1a22.51,22.51,0,0,0,18.16-25.84c-2.08-12.33-13.25-20.87-25.61-18.7-4.68.82-9.23,3.29-13.42,5.74-5.12,3-10.26,4.55-16.18,3.84A94.14,94.14,0,0,0,173.07,85c-10.74.07-19.75,6.49-22.76,16.24A24.32,24.32,0,0,0,152.39,121c5.58,9.93,13.17,18.15,21.86,25.41A10.81,10.81,0,0,0,176,147.52Zm117.4,106.69c0-5.36-1.1-6.84-5.57-8.66-2.81-1.14-5.47-2.66-8.24-3.89-5.65-2.51-11.3-5-17-7.33a4.24,4.24,0,0,0-3.31.46c-4.35,2.71-8.43,5.89-12.9,8.36-5.32,2.94-10.95,5.29-16.41,8a33.5,33.5,0,0,0-3.67,2.4l.36.68Z" transform="translate(-16.19 -11.09)"/><path class="cls-1" d="M203.93,397.19c-.06-8.66,6.22-15.36,14.48-15.46,8.5-.1,15,6.46,15.1,15.19.08,8.58-6.57,15.56-14.83,15.57S204,405.66,203.93,397.19Z" transform="translate(-16.19 -11.09)"/><path class="cls-1" d="M448.44,381.73c8.43,0,14.86,6.78,14.79,15.52-.08,8.42-6.73,15.25-14.86,15.24s-14.82-7-14.75-15.63S440.11,381.71,448.44,381.73Z" transform="translate(-16.19 -11.09)"/><path class="cls-4" d="M216.4,70c3.54-1,7-2.41,10.64-2.76,12.57-1.23,22.56,3.56,28.9,14.5,6.65,11.48,5.06,22.85-2.33,33.47-2.51,3.6-5.81,6.64-8.5,10.13s-5,7.1-8,11.37c7.64-.65,14.08-1.35,20.54-1.7a133.81,133.81,0,0,1,42.78,4.15c17.12,4.68,31.72,13.22,42,28.4,10.68-5.08,21.17-5.12,31.2,1.38,6.61,4.29,10.69,10.45,12.75,18.75l-3.3-2.16a27.15,27.15,0,0,0-30,.31,3.72,3.72,0,0,0-1.82,4.14c2.31,18.35-3.66,33.54-18.74,44.29-14.93,10.66-31.38,12-47.63,3.44-13-6.85-26.66-11.16-40.89-14.19-6.76-1.44-13.52-3-20.19-4.82-12.06-3.33-21.05-10.72-25.76-22.28-6.23-15.26-7.64-31.13-3.33-47.23a43.77,43.77,0,0,1,12.8-21.33,8.62,8.62,0,0,1,4.38-1.81c3.83-.57,7.79-.45,11.55-1.27,13.26-2.92,21.35-14.33,20.52-28.5a26.05,26.05,0,0,0-23.38-24.85c-1.34-.16-2.68-.29-4-.43Zm48.4,127.85c-.06,1-.23,1.5-.07,1.8,5.54,10.68,20.57,14.29,30.57,7.1,8.9-6.4,12-15.57,11.27-26.2a57.19,57.19,0,0,0-1.23-6.68c-.25,10.91-3.13,20.44-12.36,26.82C283.24,207.43,273.81,205.3,264.8,197.86Z" transform="translate(-16.19 -11.09)"/><path class="cls-7" d="M176,147.52a10.81,10.81,0,0,1-1.78-1.07C165.56,139.19,158,131,152.39,121a24.32,24.32,0,0,1-2.08-19.79c3-9.75,12-16.17,22.76-16.24a94.14,94.14,0,0,1,11.63.66c5.92.71,11.06-.86,16.18-3.84,4.19-2.45,8.74-4.92,13.42-5.74,12.36-2.17,23.53,6.37,25.61,18.7a22.51,22.51,0,0,1-18.16,25.84c-5.22.94-10.65.75-16,1-6.49.33-13.07,0-19.44,1-8.61,1.37-9.87,3-10.6,11.62C175.35,138.66,175.9,143.1,176,147.52Z" transform="translate(-16.19 -11.09)"/><path class="cls-8" d="M293.43,254.21H226.66l-.36-.68a33.5,33.5,0,0,1,3.67-2.4c5.46-2.69,11.09-5,16.41-8,4.47-2.47,8.55-5.65,12.9-8.36a4.24,4.24,0,0,1,3.31-.46c5.73,2.32,11.38,4.82,17,7.33,2.77,1.23,5.43,2.75,8.24,3.89C292.33,247.37,293.41,248.85,293.43,254.21Z" transform="translate(-16.19 -11.09)"/><path class="cls-1" d="M264.8,197.86c9,7.44,18.44,9.57,28.18,2.84,9.23-6.38,12.11-15.91,12.36-26.82a57.19,57.19,0,0,1,1.23,6.68c.73,10.63-2.37,19.8-11.27,26.2-10,7.19-25,3.58-30.57-7.1C264.57,199.36,264.74,198.89,264.8,197.86Z" transform="translate(-16.19 -11.09)"/><path class="cls-9" d="M154.9,522.08c.86,4.42,4.43,6.88,10.68,6.88,5.15,0,9.29-1.43,9.29-5.65,0-3.09-2.06-4.65-9.37-6.55-11.42-3-15.69-6.06-15.69-12.29,0-8.09,6.79-14.16,18.89-14.16,14.8,0,18.62,7.73,18.92,13.13h-10c-.45-2.48-2.34-5.58-9.54-5.58-4.73,0-7.41,2.13-7.41,5.09s2.26,3.9,9.53,5.71c12.57,3.17,15.43,7.46,15.43,13.43,0,8.1-6.73,14.52-20.93,14.52-12.11,0-19.1-5-19.87-14.53Z" transform="translate(-16.19 -11.09)"/><path class="cls-9" d="M220.13,503.09c.43,14.85.64,20.24.6,23.57h.07c1.84-4.26,3.66-7.84,11.33-23.57h9.11c.7,10.21,1.13,20.44,1,23.36h.06c1.34-3.44,3.56-7.94,10.7-23.36h9.69l-17.18,32.58H235.44c-.68-8-1.17-18-1.32-21.1h-.06c-1.67,4-4.64,9.49-10.7,21.1H213.11l-2.7-32.58Z" transform="translate(-16.19 -11.09)"/><path class="cls-9" d="M314.54,526.89c-1,4.39-1.54,7.37-1.68,8.78h-9.61a24.65,24.65,0,0,1,.46-3.93c-2.16,2.89-5.6,4.81-11.47,4.81-8.47,0-11-5.41-11-9.52,0-9.4,9.54-11.37,17.77-12.15,2.54-.25,6.09-.3,8.34-.36l.15-.64c.6-2.68-.69-4.92-5.51-4.92-3.78,0-5.7,1.25-6.51,3.58H285.39c1.12-4.75,4.72-10.33,16.79-10.33,14.32,0,16.18,7,14.74,13.56ZM306,520.76c-2.37,0-4.72.17-6.77.37-3.45.34-7.91,1.22-7.91,4.82,0,1.88,1.5,3.22,4.6,3.22,5.36,0,8.59-2.47,10-8.06Z" transform="translate(-16.19 -11.09)"/><path class="cls-9" d="M349.27,532.19l-3.68,17.21h-9.78l7.87-36.89c.95-4.47,1.61-7.79,1.87-9.42h9.65c-.06.75-.23,2-.58,3.83,2.38-2.67,5.44-4.71,11.16-4.71,7.92,0,12.52,6.18,12.52,13.67,0,10.68-6.66,20.67-19,20.67C353.28,536.55,350.51,534.23,349.27,532.19ZM368,517c0-4-1.82-7-6.53-7-4.91,0-8.64,3.42-9.7,9.41s1.43,9.32,6.49,9.32C364.55,528.69,368,523.56,368,517Z" transform="translate(-16.19 -11.09)"/></svg>