<svg id="Layer_2" data-name="Layer 2" xmlns="http://www.w3.org/2000/svg" viewBox="0 0 827.14 307.05"><defs><style>.cls-1{fill:none;}.cls-2{fill:#18a6df;}.cls-3{fill:#fbfdfe;}.cls-4{fill:#fdfdfe;}.cls-5{fill:#fcfdfe;}.cls-6{fill:#e9d554;}.cls-7{fill:#eed751;}.cls-8{fill:#ecd652;}.cls-9{fill:#fff;}</style></defs><title>logo-rectangle</title><path class="cls-1" d="M13.05,174.13c-.41,83.75,68.17,153.35,151.56,153.79,85.82.45,155.13-67.41,155.54-152.28A153.47,153.47,0,0,0,167.39,20.88C82.48,20.39,13.48,88.9,13.05,174.13Z" transform="translate(-13.05 -20.87)"/><path class="cls-2" d="M365.56,72.48v133h38.92V110.23c6.19-1.21,23.25-.34,29.66,1.45,11.68,3.26,18.08,10.47,19.11,22.6,1.47,17.19-5.7,29.11-23.77,32.43a24.17,24.17,0,0,1-2.8.39c-4.79.3-9.57.56-14.4.83v38.6c4.35,0,8.43.07,12.52,0,18.4-.38,34.94-5.67,48.46-18.7,16.12-15.52,21.45-34.93,19.82-56.58-2-26.23-17.86-46.45-43-54.21a98.15,98.15,0,0,0-25-4.41c-19.2-.68-38.43-.32-57.65-.37A16.2,16.2,0,0,0,365.56,72.48Z" transform="translate(-13.05 -20.87)"/><path class="cls-2" d="M677.07,107.28a53.65,53.65,0,0,0-21.62.9c-19.59,5.12-35.2,23.38-37.25,43.57-2.22,21.81,8.91,41.75,28.5,51.06,19.08,9.07,43.23,5.25,58-9.26,10.81-10.59,14.85-23.89,14.9-38.61.1-26.48,0-52.95,0-79.43V72.4H683.9v4.16c0,25,.06,50-.07,75a43.49,43.49,0,0,1-1.51,11.48c-1.75,6.17-6.28,9.23-12.67,9.42a15.28,15.28,0,0,1-14.35-9,14.73,14.73,0,0,1,3.46-16.24c4.45-4.31,10.24-5.16,16.3-2.41a17.56,17.56,0,0,0,2,.66Z" transform="translate(-13.05 -20.87)"/><path class="cls-1" d="M555.78,207.71c28.47,0,51-22.41,51-50.67a50.2,50.2,0,0,0-50.34-50.57c-29.58,0-52,21.87-51.91,50.66A50.72,50.72,0,0,0,555.78,207.71Z" transform="translate(-13.05 -20.87)"/><path class="cls-1" d="M785.45,207.71a50.62,50.62,0,1,0,.75-101.24c-29.39,0-52,21.84-52,50.32A50.86,50.86,0,0,0,785.45,207.71Z" transform="translate(-13.05 -20.87)"/><path class="cls-2" d="M597,222.54H362.19a24.17,24.17,0,0,0-4.09.17c-3.11.56-4.94,3-4.91,6.38s1.93,5.69,5.12,6.17a26.24,26.24,0,0,0,3.77.17H831.36a26.56,26.56,0,0,0,3.46-.13c3.37-.43,5.35-2.79,5.37-6.26s-1.94-5.94-5.26-6.4a30.91,30.91,0,0,0-4.09-.11Z" transform="translate(-13.05 -20.87)"/><path class="cls-3" d="M13.05,174.13C13.48,88.9,82.48,20.39,167.39,20.88A153.47,153.47,0,0,1,320.15,175.64c-.41,84.87-69.72,152.73-155.54,152.28C81.22,327.48,12.64,257.88,13.05,174.13Zm18.85.13C31.79,248.23,92,308.91,165.69,309c75,.15,135.46-59.7,135.63-134.16A134.68,134.68,0,0,0,166.94,39.75C92.57,39.54,32,99.85,31.9,174.26Z" transform="translate(-13.05 -20.87)"/><path class="cls-4" d="M365.56,72.48a16.2,16.2,0,0,1,1.86-.23c19.22,0,38.45-.31,57.65.37a98.15,98.15,0,0,1,25,4.41c25.14,7.76,41,28,43,54.21,1.63,21.65-3.7,41.06-19.82,56.58-13.52,13-30.06,18.32-48.46,18.7-4.09.08-8.17,0-12.52,0v-38.6c4.83-.27,9.61-.53,14.4-.83a24.17,24.17,0,0,0,2.8-.39c18.07-3.32,25.24-15.24,23.77-32.43-1-12.13-7.43-19.34-19.11-22.6-6.41-1.79-23.47-2.66-29.66-1.45v95.24H365.56Z" transform="translate(-13.05 -20.87)"/><path class="cls-5" d="M677.07,107.28V145.5a17.56,17.56,0,0,1-2-.66c-6.06-2.75-11.85-1.9-16.3,2.41a14.73,14.73,0,0,0-3.46,16.24,15.28,15.28,0,0,0,14.35,9c6.39-.19,10.92-3.25,12.67-9.42a43.49,43.49,0,0,0,1.51-11.48c.13-25,.07-50,.07-75V72.4h35.76v3.11c0,26.48.07,53,0,79.43,0,14.72-4.09,28-14.9,38.61-14.8,14.51-39,18.33-58,9.26-19.59-9.31-30.72-29.25-28.5-51.06,2-20.19,17.66-38.45,37.25-43.57A53.65,53.65,0,0,1,677.07,107.28Z" transform="translate(-13.05 -20.87)"/><path class="cls-4" d="M555.78,207.71a50.72,50.72,0,0,1-51.21-50.58c0-28.79,22.33-50.63,51.91-50.66A50.2,50.2,0,0,1,606.82,157C606.81,185.3,584.25,207.69,555.78,207.71Zm-14.85-50.52c.05,8.47,6.64,15.31,14.75,15.3,8.26,0,14.91-7,14.83-15.57s-6.6-15.29-15.1-15.19C547.15,141.83,540.87,148.53,540.93,157.19Z" transform="translate(-13.05 -20.87)"/><path class="cls-4" d="M785.45,207.71a50.86,50.86,0,0,1-51.25-50.92c0-28.48,22.61-50.31,52-50.32a50.62,50.62,0,1,1-.75,101.24Zm0-66c-8.33,0-14.76,6.54-14.82,15.13s6.52,15.62,14.75,15.63,14.78-6.82,14.86-15.24C800.3,148.51,793.87,141.75,785.44,141.73Z" transform="translate(-13.05 -20.87)"/><path class="cls-6" d="M597,222.54H830.84a30.91,30.91,0,0,1,4.09.11c3.32.46,5.29,2.92,5.26,6.4s-2,5.83-5.37,6.26a26.56,26.56,0,0,1-3.46.13H362.08a26.24,26.24,0,0,1-3.77-.17c-3.19-.48-5.08-2.82-5.12-6.17s1.8-5.82,4.91-6.38a24.17,24.17,0,0,1,4.09-.17Z" transform="translate(-13.05 -20.87)"/><path class="cls-1" d="M31.9,174.26C32,99.85,92.57,39.54,166.94,39.75A134.68,134.68,0,0,1,301.32,174.88c-.17,74.46-60.66,134.31-135.63,134.16C92,308.91,31.79,248.23,31.9,174.26Zm91.5-94.47.23,1c1.34.14,2.68.26,4,.43A26,26,0,0,1,151,106.08c.83,14.16-7.26,25.57-20.52,28.49-3.76.83-7.72.71-11.55,1.28a8.53,8.53,0,0,0-4.38,1.8A43.81,43.81,0,0,0,101.78,159c-4.31,16.1-2.9,32,3.33,47.23,4.71,11.56,13.7,18.95,25.76,22.28,6.67,1.84,13.43,3.39,20.19,4.83,14.23,3,27.88,7.33,40.89,14.19,16.25,8.56,32.7,7.21,47.63-3.44s21-25.95,18.74-44.29a3.74,3.74,0,0,1,1.82-4.15,27.17,27.17,0,0,1,30-.31l3.3,2.17c-2.06-8.31-6.14-14.47-12.75-18.75-10-6.51-20.52-6.47-31.2-1.38-10.31-15.19-24.91-23.73-42-28.4a134.1,134.1,0,0,0-42.78-4.16c-6.46.36-12.9,1.06-20.54,1.7,3-4.27,5.3-7.94,8-11.37s6-6.52,8.5-10.12c7.39-10.63,9-22,2.33-33.47C156.6,80.59,146.61,75.8,134,77,130.44,77.39,126.94,78.84,123.4,79.79ZM83,157.3c-.13-4.42-.68-8.86-.3-13.22.73-8.61,2-10.26,10.6-11.63,6.37-1,13-.7,19.44-1,5.33-.27,10.76-.07,16-1a22.51,22.51,0,0,0,18.16-25.84c-2.08-12.32-13.25-20.86-25.61-18.7-4.68.82-9.23,3.3-13.42,5.74-5.12,3-10.26,4.56-16.18,3.85a92.23,92.23,0,0,0-11.63-.66c-10.74.07-19.75,6.48-22.76,16.23a24.32,24.32,0,0,0,2.08,19.79C65,140.75,72.56,149,81.25,156.23A10.13,10.13,0,0,0,83,157.3ZM200.43,264c0-5.36-1.1-6.84-5.57-8.66-2.81-1.15-5.47-2.66-8.24-3.9-5.65-2.5-11.3-5-17-7.32a4.24,4.24,0,0,0-3.31.46c-4.35,2.7-8.43,5.88-12.9,8.36-5.32,2.93-10.95,5.29-16.41,8a33.59,33.59,0,0,0-3.67,2.41l.36.68Z" transform="translate(-13.05 -20.87)"/><path class="cls-1" d="M540.93,157.19c-.06-8.66,6.22-15.36,14.48-15.46,8.5-.1,15,6.46,15.1,15.19s-6.57,15.56-14.83,15.57C547.57,172.5,541,165.66,540.93,157.19Z" transform="translate(-13.05 -20.87)"/><path class="cls-1" d="M785.44,141.73c8.43,0,14.86,6.78,14.79,15.52-.08,8.42-6.73,15.25-14.86,15.24s-14.82-7-14.75-15.63S777.11,141.71,785.44,141.73Z" transform="translate(-13.05 -20.87)"/><path class="cls-4" d="M123.4,79.79c3.54-1,7-2.4,10.64-2.76,12.57-1.23,22.56,3.56,28.9,14.51C169.59,103,168,114.38,160.61,125c-2.51,3.6-5.81,6.64-8.5,10.12s-5,7.1-8,11.37c7.64-.64,14.08-1.34,20.54-1.7A134.1,134.1,0,0,1,207.48,149c17.12,4.67,31.72,13.21,42,28.4,10.68-5.09,21.17-5.13,31.2,1.38,6.61,4.28,10.69,10.44,12.75,18.75l-3.3-2.17a27.17,27.17,0,0,0-30,.31,3.74,3.74,0,0,0-1.82,4.15c2.31,18.34-3.66,33.54-18.74,44.29s-31.38,12-47.63,3.44c-13-6.86-26.66-11.17-40.89-14.19-6.76-1.44-13.52-3-20.19-4.83-12.06-3.33-21.05-10.72-25.76-22.28C98.88,191,97.47,175.08,101.78,159a43.81,43.81,0,0,1,12.8-21.33,8.53,8.53,0,0,1,4.38-1.8c3.83-.57,7.79-.45,11.55-1.28,13.26-2.92,21.35-14.33,20.52-28.49a26,26,0,0,0-23.38-24.85c-1.34-.17-2.68-.29-4-.43Zm48.4,127.86c-.06,1-.23,1.5-.07,1.8,5.54,10.68,20.57,14.29,30.57,7.09,8.9-6.4,12-15.56,11.27-26.19a57.35,57.35,0,0,0-1.23-6.69c-.25,10.91-3.13,20.45-12.36,26.82C190.24,217.21,180.81,215.09,171.8,207.65Z" transform="translate(-13.05 -20.87)"/><path class="cls-7" d="M83,157.3a10.13,10.13,0,0,1-1.78-1.07C72.56,149,65,140.75,59.39,130.82A24.32,24.32,0,0,1,57.31,111c3-9.75,12-16.16,22.76-16.23a92.23,92.23,0,0,1,11.63.66c5.92.71,11.06-.87,16.18-3.85,4.19-2.44,8.74-4.92,13.42-5.74,12.36-2.16,23.53,6.38,25.61,18.7a22.51,22.51,0,0,1-18.16,25.84c-5.22,1-10.65.75-16,1-6.49.32-13.07,0-19.44,1-8.61,1.37-9.87,3-10.6,11.63C82.35,148.44,82.9,152.88,83,157.3Z" transform="translate(-13.05 -20.87)"/><path class="cls-8" d="M200.43,264H133.66l-.36-.68a33.59,33.59,0,0,1,3.67-2.41c5.46-2.68,11.09-5,16.41-8,4.47-2.48,8.55-5.66,12.9-8.36a4.24,4.24,0,0,1,3.31-.46c5.73,2.31,11.38,4.82,17,7.32,2.77,1.24,5.43,2.75,8.24,3.9C199.33,257.16,200.41,258.64,200.43,264Z" transform="translate(-13.05 -20.87)"/><path class="cls-1" d="M171.8,207.65c9,7.44,18.44,9.56,28.18,2.83,9.23-6.37,12.11-15.91,12.36-26.82a57.35,57.35,0,0,1,1.23,6.69c.73,10.63-2.37,19.79-11.27,26.19-10,7.2-25,3.59-30.57-7.09C171.57,209.15,171.74,208.67,171.8,207.65Z" transform="translate(-13.05 -20.87)"/><path class="cls-9" d="M491.9,282.08c.86,4.42,4.43,6.88,10.68,6.88,5.15,0,9.29-1.43,9.29-5.65,0-3.09-2.06-4.65-9.37-6.55-11.42-3-15.69-6.06-15.69-12.29,0-8.09,6.79-14.16,18.89-14.16,14.8,0,18.62,7.73,18.92,13.13h-10c-.45-2.48-2.34-5.58-9.54-5.58-4.73,0-7.41,2.13-7.41,5.09s2.26,3.9,9.53,5.71c12.57,3.17,15.43,7.46,15.43,13.43,0,8.1-6.73,14.52-20.93,14.52-12.11,0-19.1-5-19.87-14.53Z" transform="translate(-13.05 -20.87)"/><path class="cls-9" d="M557.13,263.09c.43,14.85.64,20.24.6,23.57h.07c1.84-4.26,3.66-7.84,11.33-23.57h9.11c.7,10.21,1.13,20.44,1,23.36h.06c1.34-3.44,3.56-7.94,10.7-23.36h9.69l-17.18,32.58H572.44c-.68-8-1.17-18-1.32-21.1h-.06c-1.67,4-4.64,9.49-10.7,21.1H550.11l-2.7-32.58Z" transform="translate(-13.05 -20.87)"/><path class="cls-9" d="M651.54,286.89c-1,4.39-1.54,7.37-1.68,8.78h-9.61a24.65,24.65,0,0,1,.46-3.93c-2.16,2.89-5.6,4.81-11.47,4.81-8.47,0-11-5.41-11-9.52,0-9.4,9.54-11.37,17.77-12.15,2.54-.25,6.09-.3,8.34-.36l.15-.64c.6-2.68-.69-4.92-5.51-4.92-3.78,0-5.7,1.25-6.51,3.58H622.39c1.12-4.75,4.72-10.33,16.79-10.33,14.32,0,16.18,7,14.74,13.56ZM643,280.76c-2.37.05-4.72.17-6.77.37-3.45.34-7.91,1.22-7.91,4.82,0,1.88,1.5,3.22,4.6,3.22,5.36,0,8.59-2.47,10-8.06Z" transform="translate(-13.05 -20.87)"/><path class="cls-9" d="M686.27,292.19l-3.68,17.21h-9.78l7.87-36.89c1-4.47,1.61-7.79,1.87-9.42h9.65c-.06.75-.23,2-.58,3.83,2.38-2.67,5.44-4.71,11.16-4.71,7.92,0,12.52,6.18,12.52,13.67,0,10.68-6.66,20.67-19,20.67C690.28,296.55,687.51,294.23,686.27,292.19ZM705,277c0-4-1.82-7-6.53-7-4.91,0-8.64,3.42-9.7,9.41s1.43,9.32,6.49,9.32C701.55,288.69,705,283.56,705,277Z" transform="translate(-13.05 -20.87)"/></svg>